<svg width="22" height="22" viewBox="0 0 22 22" fill="none" xmlns="http://www.w3.org/2000/svg">
<path fill-rule="evenodd" clip-rule="evenodd" d="M17.9998 18H14.9998V17.5C14.9998 17.014 15.1558 16.637 15.4388 16.354L16.8538 14.939C16.9458 14.846 16.9998 14.717 16.9998 14.586C16.9998 14.224 16.7748 14 16.4998 14C16.2248 14 15.9998 14.224 15.9998 14.5V15H14.9998V14.5C14.9998 13.673 15.6728 13 16.4998 13C17.3268 13 17.9998 13.673 17.9998 14.5C17.9998 14.986 17.8438 15.363 17.5608 15.646L16.2068 17H17.9998V18Z" fill="currentColor"/>
<path fill-rule="evenodd" clip-rule="evenodd" d="M17.9998 18H14.9998V17.5C14.9998 17.014 15.1558 16.637 15.4388 16.354L16.8538 14.939C16.9458 14.846 16.9998 14.717 16.9998 14.586C16.9998 14.224 16.7748 14 16.4998 14C16.2248 14 15.9998 14.224 15.9998 14.5V15H14.9998V14.5C14.9998 13.673 15.6728 13 16.4998 13C17.3268 13 17.9998 13.673 17.9998 14.5C17.9998 14.986 17.8438 15.363 17.5608 15.646L16.2068 17H17.9998V18Z" fill="currentColor"/>
<path d="M5.56137 14.059C5.91794 15.5416 7.02518 16.4424 8.84556 16.4424C10.6472 16.4424 11.7919 15.504 11.7919 14.1153C11.7919 12.7265 10.7785 12.2949 9.12706 11.8257L7.92599 11.4879C5.61767 10.8311 4.21017 9.81769 4.21017 7.69705C4.21017 5.48257 6.04931 4 8.82679 4C11.5104 4 13.0493 5.33244 13.3871 7.39678L11.6418 7.54692C11.2477 6.28954 10.4032 5.55764 8.77049 5.55764C7.21285 5.55764 6.16191 6.34584 6.16191 7.60322C6.16191 8.86059 7.11901 9.34853 8.67666 9.83646L9.87773 10.193C12.2423 10.9062 13.7061 11.6568 13.7061 13.9839C13.7061 16.4048 11.623 18 8.80802 18C6.03054 18 4.1914 16.6863 3.75977 14.2091L5.56137 14.059Z" fill="currentColor"/>
</svg>
