<svg width="22" height="22" viewBox="0 0 22 22" fill="none" xmlns="http://www.w3.org/2000/svg">
<path d="M6.44867 13.8271C6.45264 13.8379 6.54587 14.096 6.59987 14.2238C6.89651 14.9251 7.32131 15.5551 7.8624 16.0962C8.40311 16.6369 9.03311 17.0617 9.73511 17.3583C10.4616 17.6658 11.2334 17.8216 12.0287 17.8216C12.8239 17.8216 13.5954 17.6658 14.3222 17.3583C15.0239 17.0617 15.6539 16.6369 16.195 16.0958C16.736 15.5551 17.1605 14.9247 17.4575 14.2231C17.7649 13.4962 17.9208 12.7248 17.9208 11.9295C17.9208 11.1343 17.7649 10.3624 17.4575 9.63596C17.1608 8.93432 16.736 8.30432 16.195 7.76324C15.6542 7.22252 15.0242 6.79772 14.3222 6.50072C13.5958 6.19328 12.8239 6.0374 12.0287 6.0374C11.2241 6.0374 10.4198 6.1976 9.70343 6.50072C9.13067 6.743 8.16119 7.36688 7.59383 7.95188L7.5906 7.95548V3.10664H15.736C16.0322 3.1034 16.0322 2.6894 16.0322 2.55332C16.0322 2.41724 16.0322 2.0036 15.7349 2H6.92783C6.68807 2 6.53975 2.19944 6.53975 2.38412V9.20936C6.53975 9.42968 6.81408 9.58844 7.06896 9.64316C7.56648 9.74936 7.68167 9.59024 7.80335 9.42212L7.81956 9.3998C8.00568 9.12332 8.58708 8.53796 8.59283 8.5322C9.50039 7.62464 10.7136 7.12496 12.0096 7.12496C13.2991 7.12496 14.5091 7.62464 15.4166 8.5322C16.3271 9.44264 16.8286 10.6494 16.8286 11.9295C16.8286 13.2144 16.3296 14.4211 15.4238 15.3268C14.5296 16.2211 13.28 16.7341 11.9959 16.7341C11.1262 16.7341 10.2866 16.5022 9.56736 16.0638L9.57059 11.9137C9.57059 11.3604 9.81071 10.7588 10.2128 10.3045C10.6726 9.78536 11.3065 9.49916 11.9974 9.49916C12.6666 9.49916 13.2916 9.75332 13.757 10.2145C14.2193 10.6724 14.4738 11.2826 14.4738 11.9328C14.4738 13.3195 13.3834 14.406 11.9912 14.406C11.723 14.406 11.2349 14.2875 11.2151 14.2825C10.9339 14.1986 10.8144 14.5888 10.7752 14.7177C10.624 15.2124 10.8511 15.3106 10.8983 15.325C11.3461 15.464 11.6399 15.4903 12.0254 15.4903C13.9907 15.4903 15.5894 13.8908 15.5894 11.9245C15.5894 9.974 13.9914 8.38712 12.0276 8.38712C11.0657 8.38712 10.1621 8.75468 9.48348 9.42248C8.83692 10.0582 8.46611 10.906 8.46611 11.7481L8.46575 11.769C8.46251 11.8741 8.46072 14.3617 8.46 15.1782L8.4564 15.1742C8.08704 14.7652 7.722 14.1392 7.47972 13.4995C7.38468 13.2489 7.17048 13.2932 6.87815 13.3832C6.75036 13.4224 6.36156 13.5423 6.4476 13.8235L6.44867 13.8271ZM10.6351 12.8522C10.6366 12.9714 10.7456 13.0761 10.8108 13.1384L10.8313 13.1582C10.9433 13.2684 11.0495 13.3238 11.1478 13.3238C11.2291 13.3238 11.2792 13.2853 11.2968 13.2687C11.3461 13.223 11.9034 12.6585 11.9563 12.6045L12.5777 13.2237C12.6353 13.2885 12.6976 13.3209 12.7706 13.3231C12.87 13.3231 12.978 13.264 13.0921 13.1478C13.3603 12.8742 13.226 12.7262 13.1612 12.6549L12.5316 12.0253L13.1882 11.364C13.3322 11.2081 13.2052 11.0425 13.0784 10.9158C12.8941 10.7314 12.7166 10.6839 12.6029 10.789L11.9502 11.4432L11.29 10.7829C11.255 10.7494 11.2108 10.7318 11.1625 10.7318C11.0747 10.7318 10.9703 10.7912 10.8533 10.9086C10.6502 11.1116 10.6067 11.252 10.7125 11.364L11.3728 12.0224L10.7161 12.6801C10.6618 12.7338 10.6348 12.7917 10.6351 12.8522ZM12.074 3.92852C11.0185 3.92852 9.89604 4.14164 9.07128 4.4984C8.98308 4.53296 8.93051 4.60388 8.91899 4.70324C8.90819 4.7972 8.93339 4.92104 8.9964 5.08196C9.04751 5.21264 9.18324 5.56004 9.44639 5.4596C10.2906 5.13776 11.2237 4.96028 12.074 4.96028C13.0374 4.96028 13.972 5.14892 14.8514 5.5208C15.5502 5.81636 16.2097 6.24332 16.9265 6.86468C16.9787 6.91004 17.0341 6.93308 17.0914 6.93308C17.231 6.93308 17.3653 6.79592 17.4798 6.66704C17.6713 6.45212 17.8027 6.27392 17.6141 6.09536C16.9294 5.447 16.1795 4.96244 15.2532 4.57076C14.2463 4.14452 13.1767 3.92852 12.074 3.92852ZM17.761 16.9612C17.6339 16.8345 17.5262 16.7596 17.4312 16.7326C17.3351 16.7049 17.249 16.7254 17.1828 16.792L17.1202 16.8543C16.466 17.5084 15.7043 18.0222 14.8561 18.3807C13.9784 18.7519 13.0457 18.9402 12.0841 18.9402C11.1226 18.9402 10.1898 18.7519 9.31211 18.3807C8.46395 18.0222 7.7022 17.5084 7.04807 16.8543C6.3666 16.1728 5.85287 15.4111 5.52167 14.5906C5.19875 13.7904 5.09327 13.1884 5.05835 12.9908C5.05511 12.9724 5.05259 12.9577 5.05043 12.9469C5.00615 12.714 4.79159 12.6978 4.48343 12.7449C4.35527 12.7644 3.96539 12.8241 4.00247 13.1046L4.00319 13.111C4.10651 13.7605 4.28867 14.397 4.54499 15.0032C4.95719 15.9777 5.54687 16.8525 6.29819 17.6035C7.04952 18.3548 7.92431 18.9445 8.89848 19.3567C9.90828 19.7836 10.9796 20 12.0841 20C13.1879 20 14.2596 19.7836 15.2687 19.3563C16.2428 18.9445 17.1176 18.3544 17.869 17.6028C17.8708 17.601 17.9118 17.5603 17.9341 17.5358C18.0173 17.4462 18.0893 17.2885 17.761 16.9612Z" fill="currentColor"/>
</svg>
